0 FILE main.ldr
0 Name: main.ldr
0 !BRICK-STUDIO FORMAT lego.ldraw-subset/1
0 !BRICK-STUDIO DOCUMENT p14a revision-0 manual ~ x70313461
0 !BRICK-STUDIO COUNTS 1 1 1 0 0
0 !BRICK-STUDIO CONSTRAINTS builtin 500
0 !BRICK-STUDIO SUBMODEL 0 root x526f6f74 submodel-0000.ldr
0 !BRICK-STUDIO STEP 0 step-1 x537465702031
1 16 0 0 0 1 0 0 0 1 0 0 0 1 submodel-0000.ldr
0 NOFILE
0 FILE submodel-0000.ldr
0 Name: submodel-0000.ldr
0 !BRICK-STUDIO SUBMODEL-USE root
0 !BRICK-STUDIO STEP-USE step-1
0 !BRICK-STUDIO PART long manual ~ ~
1 4 0 0 0 0 0 1 0 1 0 -1 0 0 91988.dat
0 NOFILE
